#!OML:ASF F:\VICON\USERDATA\INSTALL\rory3\rory3.ASF
:FULLY-SPECIFIED
:DEGREES
938
root 2.09401 16.5039 0.844011 -2.19642 -41.9829 -1.70235
lowerback 12.8617 0.165594 -3.94774
upperback 2.83161 -0.422351 -1.25297
thorax -4.21423 -0.196155 0.986443
lowerneck -10.7086 10.5927 -6.02589
upperneck 20.1177 14.9468 3.33136
head 7.21664 6.94976 3.332
rclavicle 7.31528e-014 -1.27222e-014
rhumerus -45.9584 25.1007 -87.7908
rradius 110.427
rwrist -19.3379
rhand -20.9776 12.3093
rfingers 7.12502
rthumb 5.39595 -17.602
lclavicle 7.31528e-014 -1.27222e-014
lhumerus 30.3376 9.44474 59.8867
lradius 51.5015
lwrist 9.05562
lhand -11.2101 12.589
lfingers 7.12502
lthumb 14.8181 42.0392
rfemur -0.749568 16.5992 12.7651
rtibia 62.1504
rfoot -2.40155 11.3386
rtoes -29.9405
lfemur -41.6849 1.5884 -4.37443
ltibia 59.6656
lfoot -3.92927 -6.27865
ltoes -13.111
939
root 2.04617 16.4803 0.952289 -1.99515 -40.1568 -2.12155
lowerback 12.8373 0.179159 -4.48027
upperback 2.77362 -0.481733 -1.40872
thorax -4.25542 -0.218179 1.13242
lowerneck -11.2691 10.3071 -6.32745
upperneck 20.5245 14.5048 4.15429
head 7.37382 6.7823 3.65605
rclavicle -1.17283e-013 -8.74653e-015
rhumerus -45.7822 24.497 -87.8395
rradius 109.048
rwrist -20.0474
rhand -20.9457 12.463
rfingers 7.12502
rthumb 5.42677 -17.4475
lclavicle -1.17283e-013 -8.74653e-015
lhumerus 31.976 8.01411 61.603
lradius 51.026
lwrist 5.63124
lhand -10.9203 12.5417
lfingers 7.12502
lthumb 15.0973 41.9711
rfemur -0.153752 15.9297 13.4084
rtibia 61.7835
rfoot -0.422658 11.8872
rtoes -30.5451
lfemur -41.8364 0.793603 -4.74112
ltibia 59.7704
lfoot -4.48573 -6.01898
ltoes -6.45294
940
root 1.99882 16.456 1.05528 -1.52534 -38.4229 -2.801
lowerback 12.7667 0.198419 -4.68381
upperback 2.72471 -0.489466 -1.6166
thorax -4.26769 -0.218939 1.03
lowerneck -11.7139 10.0086 -6.57573
upperneck 20.6442 14.0324 4.90571
head 7.43383 6.61201 3.92781
rclavicle -5.00937e-014 -1.59028e-014
rhumerus -45.4424 23.8258 -87.9551
rradius 107.94
rwrist -20.4964
rhand -21.0934 12.2182
rfingers 7.12502
rthumb 5.28418 -17.6959
lclavicle -5.00937e-014 -1.59028e-014
lhumerus 33.0884 5.71486 62.3036
lradius 51.9287
lwrist 5.14137
lhand -10.9021 12.0098
lfingers 7.12502
lthumb 15.1148 41.4379
rfemur 0.288824 15.3187 14.3605
rtibia 61.4951
rfoot 1.23813 12.6452
rtoes -30.524
lfemur -42.2693 0.210974 -4.83861
ltibia 60.2237
lfoot -5.52235 -6.16899
ltoes -7.71668
941
root 1.95305 16.4357 1.15673 -0.915197 -36.7254 -3.67449
lowerback 12.66 0.280271 -4.52905
upperback 2.72229 -0.364376 -1.84693
thorax -4.221 -0.160098 0.681436
lowerneck -11.8054 9.63336 -6.93712
upperneck 20.2104 13.4609 5.56758
head 7.26171 6.40006 4.12951
rclavicle -9.38264e-014 1.90833e-014
rhumerus -44.9619 22.8832 -87.9797
rradius 107.121
rwrist -20.8061
rhand -21.5214 11.8382
rfingers 7.12502
rthumb 4.87093 -18.0858
lclavicle -9.38264e-014 1.90833e-014
lhumerus 33.8943 2.64529 62.3285
lradius 53.858
lwrist 6.33334
lhand -10.7288 11.2723
lfingers 7.12502
lthumb 15.2818 40.6877
rfemur 0.717154 14.8516 15.5386
rtibia 61.3557
rfoot 2.47988 13.373
rtoes -29.2048
lfemur -42.8553 -0.4145 -4.65677
ltibia 60.8518
lfoot -6.61679 -6.25007
ltoes -10.9513
942
root 1.90898 16.4133 1.25328 -0.372294 -35.1064 -4.39181
lowerback 12.6021 0.504366 -4.47675
upperback 2.72581 -0.0676753 -2.06528
thorax -4.19917 -0.0153025 0.376003
lowerneck -11.6628 9.21078 -7.33741
upperneck 19.3895 12.848 6.07587
head 6.94321 6.16129 4.25364
rclavicle -2.08724e-014 2.06736e-014
rhumerus -44.3687 21.6646 -87.6629
rradius 106.559
rwrist -20.704
rhand -21.6751 11.8321
rfingers 7.12502
rthumb 4.72252 -18.0953
lclavicle -2.08724e-014 2.06736e-014
lhumerus 34.4441 -0.789039 62.4115
lradius 56.5271
lwrist 7.95959
lhand -10.1902 10.8819
lfingers 7.12502
lthumb 15.8005 40.2571
rfemur 1.04068 14.3443 16.6256
rtibia 61.303
rfoot 3.19215 13.7795
rtoes -27.7523
lfemur -43.5301 -1.41149 -4.2432
ltibia 61.3526
lfoot -7.16515 -6.62337
ltoes -10.6916
943
root 1.86557 16.3889 1.34176 0.155772 -33.5471 -5.00497
lowerback 12.7184 0.855692 -4.60374
upperback 2.60096 0.362139 -2.19305
thorax -4.41088 0.203152 0.241925
lowerneck -11.4215 8.74318 -7.79856
upperneck 18.7011 12.1889 6.5605
head 6.66051 5.88482 4.38213
rclavicle -8.56762e-014 1.59028e-014
rhumerus -43.9014 20.3034 -86.9622
rradius 106.386
rwrist -20.4153
rhand -21.6068 11.8166
rfingers 7.12502
rthumb 4.78842 -18.1093
lclavicle -8.56762e-014 1.59028e-014
lhumerus 34.7943 -4.38947 62.8078
lradius 59.4053
lwrist 9.24712
lhand -9.42956 10.7825
lfingers 7.12502
lthumb 16.5329 40.0982
rfemur 1.2361 13.6985 17.6727
rtibia 61.284
rfoot 3.44519 13.8762
rtoes -26.8767
lfemur -44.2505 -2.44425 -3.74622
ltibia 61.7978
lfoot -7.51471 -7.20167
ltoes -11.2723
944
root 1.81738 16.3608 1.42478 0.553806 -31.8552 -5.2874
lowerback 12.618 1.34058 -4.72704
upperback 2.5774 0.974545 -2.52944
thorax -4.3997 0.504559 -0.140808
lowerneck -11.0062 8.10704 -8.29541
upperneck 17.8352 11.2581 7.27088
head 6.30384 5.49617 4.55795
rclavicle -7.55382e-015 1.59028e-014
rhumerus -43.2307 18.3026 -86.0356
rradius 106.534
rwrist -20.2819
rhand -21.7124 11.5867
rfingers 7.12502
rthumb 4.6865 -18.3414
lclavicle -7.55382e-015 1.59028e-014
lhumerus 35.4775 -8.39757 63.2388
lradius 62.2114
lwrist 9.45437
lhand -8.65711 10.6419
lfingers 7.12502
lthumb 17.2765 39.894
rfemur 1.4109 12.8808 18.4974
rtibia 61.2387
rfoot 3.27289 13.7643
rtoes -26.4909
lfemur -45.014 -3.7839 -3.35324
ltibia 62.089
lfoot -7.60737 -8.17263
ltoes -10.4227
945
root 1.76374 16.3386 1.50372 0.939987 -30.0919 -5.38529
lowerback 12.4813 1.91475 -5.12994
upperback 2.50052 1.67052 -2.83303
thorax -4.42992 0.851796 -0.346139
lowerneck -10.2607 7.42536 -8.8496
upperneck 16.8377 10.2455 8.05829
head 5.86331 5.0629 4.74775
rclavicle -1.51076e-014 4.77083e-015
rhumerus -42.4575 16.181 -84.7833
rradius 106.921
rwrist -20.3942
rhand -21.8435 11.3086
rfingers 7.12502
rthumb 4.55984 -18.6224
lclavicle -1.51076e-014 4.77083e-015
lhumerus 35.9085 -12.3867 64.049
lradius 64.9521
lwrist 8.38734
lhand -8.14305 10.1913
lfingers 7.12502
lthumb 17.7712 39.3993
rfemur 1.52913 11.968 19.2503
rtibia 61.0721
rfoot 2.83879 13.4151
rtoes -26.313
lfemur -45.8715 -5.2422 -3.03359
ltibia 62.2806
lfoot -7.71649 -9.13294
ltoes -9.75962
946
root 1.70949 16.335 1.57805 1.42154 -28.2671 -5.50722
lowerback 12.2966 2.5099 -5.54597
upperback 2.42615 2.40098 -3.07441
thorax -4.43636 1.2162 -0.48286
lowerneck -9.4108 6.75489 -9.42161
upperneck 15.8835 9.24412 8.88852
head 5.43227 4.62381 4.96425
rclavicle 3.29983e-014 3.02153e-014
rhumerus -41.4393 14.0447 -83.1396
rradius 107.416
rwrist -20.702
rhand -21.6688 11.3089
rfingers 7.12502
rthumb 4.72859 -18.6183
lclavicle 3.29983e-014 3.02153e-014
lhumerus 35.9359 -16.2416 65.1525
lradius 67.7164
lwrist 6.78084
lhand -7.77061 9.95265
lfingers 7.12502
lthumb 18.1295 39.1277
rfemur 1.54028 10.8907 20.054
rtibia 60.7639
rfoot 2.68473 12.9463
rtoes -25.6907
lfemur -46.868 -6.50798 -2.73756
ltibia 62.433
lfoot -7.86097 -9.81064
ltoes -10.242
947
root 1.65463 16.3414 1.65276 1.80834 -26.2145 -5.42766
lowerback 12.0844 3.03399 -6.09604
upperback 2.38327 3.02662 -3.30778
thorax -4.40074 1.52952 -0.516566
lowerneck -8.57869 6.10183 -9.98276
upperneck 15.1846 8.25643 9.78491
head 5.09641 4.18133 5.22577
rclavicle -3.1408e-014 9.54166e-014
rhumerus -40.1507 11.9548 -81.1548
rradius 107.967
rwrist -21.0966
rhand -21.2074 11.7197
rfingers 7.12502
rthumb 5.17408 -18.1971
lclavicle -3.1408e-014 9.54166e-014
lhumerus 35.4584 -19.961 66.3997
lradius 70.4366
lwrist 5.25145
lhand -7.47098 10.1968
lfingers 7.12502
lthumb 18.4178 39.3449
rfemur 1.56888 9.49494 20.6758
rtibia 60.3566
rfoot 2.87486 12.3266
rtoes -25.1282
lfemur -47.8229 -7.83945 -2.71478
ltibia 62.4302
lfoot -8.1024 -10.4496
ltoes -11.0294
948
root 1.59765 16.3441 1.72334 2.2203 -24.1135 -5.22616
lowerback 11.8314 3.5186 -6.72002
upperback 2.33187 3.59453 -3.58497
thorax -4.35637 1.81479 -0.54346
lowerneck -7.86716 5.49216 -10.4138
upperneck 14.7796 7.31966 10.6377
head 4.88901 3.75637 5.48351
rclavicle -8.34896e-015 6.67916e-014
rhumerus -38.5906 9.92213 -78.9674
rradius 108.669
rwrist -21.3619
rhand -21.0482 11.6235
rfingers 7.12502
rthumb 5.32779 -18.2895
lclavicle -8.34896e-015 6.67916e-014
lhumerus 34.601 -23.5467 67.566
lradius 73.0692
lwrist 4.57379
lhand -7.37311 10.4316
lfingers 7.12502
lthumb 18.5119 39.5708
rfemur 1.70433 8.08068 21.1955
rtibia 59.9915
rfoot 3.04039 11.2898
rtoes -24.2122
lfemur -48.7543 -9.08784 -2.85592
ltibia 62.2601
lfoot -8.30209 -10.9944
ltoes -11.3615
949
root 1.53969 16.3609 1.78642 2.75714 -22.1049 -5.05984
lowerback 11.5519 3.99459 -7.25729
upperback 2.29738 4.16763 -3.8922
thorax -4.27709 2.10029 -0.647259
lowerneck -7.41423 4.93321 -10.8152
upperneck 14.6483 6.45239 11.5612
head 4.81175 3.36853 5.79083
rclavicle -2.38542e-015 -4.77083e-015
rhumerus -36.7125 7.86768 -76.6033
rradius 109.516
rwrist -21.4855
rhand -21.1696 10.8271
rfingers 7.12502
rthumb 5.21063 -19.0888
lclavicle -2.38542e-015 -4.77083e-015
lhumerus 33.5214 -26.9466 68.5443
lradius 75.7544
lwrist 4.97247
lhand -7.22407 10.6697
lfingers 7.12502
lthumb 18.6553 39.7952
rfemur 1.592 6.70601 21.7911
rtibia 59.6837
rfoot 3.15278 9.58218
rtoes -24.0821
lfemur -49.622 -10.057 -3.0222
ltibia 61.8914
lfoot -8.09654 -11.4454
ltoes -9.50809
950
root 1.48679 16.3873 1.85009 3.36734 -20.0515 -4.93936
lowerback 11.2289 4.3733 -7.58536
upperback 2.27089 4.64786 -4.20439
thorax -4.14761 2.33721 -0.850003
lowerneck -7.06658 4.43501 -11.199
upperneck 14.7226 5.6583 12.5242
head 4.8164 3.01784 6.12842
rclavicle -1.11319e-013 2.8625e-014
rhumerus -34.5166 5.75588 -74.1071
rradius 110.163
rwrist -21.367
rhand -21.2839 10.4717
rfingers 7.12502
rthumb 5.10026 -19.447
lclavicle -1.11319e-013 2.8625e-014
lhumerus 31.9432 -30.04 69.5646
lradius 78.5198
lwrist 5.97854
lhand -6.70002 10.8535
lfingers 7.12502
lthumb 19.1593 39.9298
rfemur 1.39551 5.29494 22.4376
rtibia 59.4062
rfoot 3.08156 7.55861
rtoes -24.1911
lfemur -50.4646 -10.9818 -3.17483
ltibia 61.3625
lfoot -7.59262 -11.9586
ltoes -6.29988
951
root 1.43879 16.4175 1.91327 4.07396 -17.9096 -4.76962
lowerback 10.7899 4.63678 -7.80009
upperback 2.23659 5.00575 -4.55019
thorax -3.9439 2.51231 -1.11759
lowerneck -6.6601 4.00153 -11.4314
upperneck 14.8123 4.93967 13.3694
head 4.82478 2.70084 6.40834
rclavicle 1.98785e-014 1.11319e-014
rhumerus -32.0065 3.47816 -71.561
rradius 110.602
rwrist -20.9963
rhand -21.1244 10.4507
rfingers 7.12502
rthumb 5.25421 -19.4642
lclavicle 1.98785e-014 1.11319e-014
lhumerus 29.7046 -32.7893 70.7061
lradius 81.4152
lwrist 7.22919
lhand -6.06282 11.099
lfingers 7.12502
lthumb 19.772 40.1134
rfemur 1.10649 3.77662 23.0211
rtibia 59.0682
rfoot 2.84662 5.88972
rtoes -23.4143
lfemur -51.422 -11.9333 -3.31133
ltibia 60.7006
lfoot -7.2353 -12.5201
ltoes -5.49895
